<mxfile host="app.diagrams.net" modified="2024-04-30T09:57:57.192Z" agent="Mozilla/5.0 (Windows NT 10.0; Win64; x64) AppleWebKit/537.36 (KHTML, like Gecko) Chrome/124.0.0.0 Safari/537.36" version="24.3.1" etag="LkzTNdP2xgS4OMCjyHqJ" type="github">
  <diagram name="Page-1" id="nHgqSJaq6KNHSCAUuxqS">
    <mxGraphModel>
      <root>
        <mxCell id="0" />
        <mxCell id="1" parent="0" />
      </root>
    </mxGraphModel>
  </diagram>
</mxfile>
